0
SECTION
2
HEADER
0
ENDSEC
0
SECTION
2
TABLES
0
TABLE
2
LTYPE
0
LTYPE
2
BYBLOCK
70
0
3

72
65
73
0
40
0.000000
0
LTYPE
2
BYLAYER
70
0
3

72
65
73
0
40
0.000000
0
LTYPE
2
CONTINUOUS
70
0
3
Solid line
72
65
73
0
40
0.000000
0
LTYPE
2
CENTER
70
0
3
____ _ ____ _ ____ _ ____ _ ____ _ ____ _ ____
72
65
73
4
40
0.600000
49
0.375000
49
-0.075000
49
0.075000
49
-0.075000
0
LTYPE
2
HIDDEN
70
0
3
- - - - - - - - - - - - - - - - - - - -
72
65
73
2
40
0.200000
49
0.100000
49
-0.100000
0
LTYPE
2
PHANTOM
70
0
3
_____ _ _ _____ _ _ _____ _ _ _____
72
65
73
6
40
0.800000
49
0.450000
49
-0.050000
49
0.100000
49
-0.050000
49
0.100000
49
-0.050000
0
LTYPE
2
DOT
70
0
3
. . . . . . . . . . . . . . . . . . . .
72
65
73
2
40
0.200000
49
0.100000
49
-0.100000
0
LTYPE
2
DASHED
70
0
3
- - - - - - - - - - - - - - - - - - - -
72
65
73
2
40
0.200000
49
0.100000
49
-0.100000
0
LTYPE
2
Continuous
70
0
3
EngravingTextContinuous
72
65
73
0
40
0.000000
0
ENDTAB
0
TABLE
2
LAYER
0
LAYER
2
0
70
0
62
9
6
CONTINUOUS
0
LAYER
2
DEFAULT_1
70
0
62
7
6
CENTER
0
LAYER
2
DEFAULT_2
70
0
62
8
6
HIDDEN
0
LAYER
2
DEFAULT_3
70
0
62
7
6
PHANTOM
0
LAYER
2
ENGRAVINGLAYER
70
0
62
7
6
CONTINUOUS
0
LAYER
2
INTF_25
70
0
62
7
6
CONTINUOUS
0
LAYER
2
EngravingLayer
70
0
62
7
6
Continuous
0
LAYER
2
FilenameLayer
70
0
62
7
6
Continuous
0
ENDTAB
0
TABLE
2
STYLE
0
STYLE
2
STANDARD
3
txt
70
0
71
0
40
0.000000
41
0.800000
42
0.150000
50
0.000000
0
STYLE
2
TEXTSTYLE_1
3
amx_icons.ttf
70
0
71
0
40
0.000000
41
1.000000
42
0.200000
50
0.000000
0
STYLE
2
TEXTSTYLE_2
3
ARIALUNI.TTF
70
0
71
0
40
0.000000
41
1.000000
42
0.200000
50
0.000000
0
STYLE
2
ROMANS
3
ROMANS.SHX
70
0
71
0
40
0.000000
41
1.000000
42
0.120000
50
0.000000
0
STYLE
2
AMX_ICON_2
3
amxicon2.ttf
70
0
71
0
40
0.000000
41
1.000000
42
1.000000
50
0.000000
0
STYLE
2
ARIAL
3
arial.ttf
70
0
71
0
40
0.000000
41
1.000000
42
1.000000
50
0.000000
0
STYLE
2
ARIAL_NARROW
3
arialN.ttf
70
0
71
0
40
0.000000
41
1.000000
42
1.000000
50
0.000000
0
STYLE
2
ARIAL_UNICODE_MS
3
arialuni.ttf
70
0
71
0
40
0.000000
41
1.000000
42
1.000000
50
0.000000
0
ENDTAB
0
TABLE
2
DIMSTYLE
0
ENDTAB
0
ENDSEC
0
SECTION
2
BLOCKS
0
BLOCK
8
0
2
*MODEL_SPACE
70
0
10
0.000000
20
0.000000
3
*MODEL_SPACE
0
ENDBLK
0
BLOCK
8
0
2
*PAPER_SPACE
70
0
10
0.000000
20
0.000000
3
*PAPER_SPACE
0
ENDBLK
0
ENDSEC
0
SECTION
2
ENTITIES
0
LINE
8
0
62
7
6
CONTINUOUS
10
0.000000
20
0.000000
11
8.500000
21
0.000000
0
LINE
8
0
62
7
6
CONTINUOUS
10
0.000000
20
0.000000
11
8.500000
21
0.000000
0
LINE
8
0
62
7
6
CONTINUOUS
10
2.209500
20
5.939000
11
3.289500
21
5.939000
0
LINE
8
0
62
7
6
CONTINUOUS
10
2.209500
20
6.910000
11
3.289500
21
6.910000
0
LINE
8
0
62
7
6
CONTINUOUS
10
2.209500
20
7.139000
11
3.289500
21
7.139000
0
LINE
8
0
62
7
6
CONTINUOUS
10
2.209500
20
8.110000
11
3.289500
21
8.110000
0
LINE
8
0
62
7
6
CONTINUOUS
10
2.209500
20
8.339000
11
3.289500
21
8.339000
0
LINE
8
0
62
7
6
CONTINUOUS
10
2.209500
20
9.310000
11
3.289500
21
9.310000
0
LINE
8
0
62
7
6
CONTINUOUS
10
2.209500
20
9.539000
11
3.289500
21
9.539000
0
LINE
8
0
62
7
6
CONTINUOUS
10
2.209500
20
10.510000
11
3.289500
21
10.510000
0
LINE
8
0
62
7
6
CONTINUOUS
10
8.500000
20
11.000000
11
0.000000
21
11.000000
0
LINE
8
0
62
7
6
CONTINUOUS
10
0.000000
20
11.000000
11
8.500000
21
11.000000
0
LINE
8
0
62
7
6
CONTINUOUS
10
0.000000
20
11.000000
11
0.000000
21
0.000000
0
LINE
8
0
62
7
6
CONTINUOUS
10
0.000000
20
0.000000
11
0.000000
21
11.000000
0
LINE
8
0
62
7
6
CONTINUOUS
10
0.709500
20
0.939000
11
0.709500
21
1.910000
0
LINE
8
0
62
7
6
CONTINUOUS
10
2.879500
20
0.939000
11
2.879500
21
1.910000
0
LINE
8
0
62
7
6
CONTINUOUS
10
0.709500
20
0.939000
11
2.879500
21
0.939000
0
LINE
8
0
62
7
6
CONTINUOUS
10
0.709500
20
1.910000
11
2.879500
21
1.910000
0
LINE
8
0
62
7
6
CONTINUOUS
10
0.709500
20
2.189000
11
2.879500
21
2.189000
0
LINE
8
0
62
7
6
CONTINUOUS
10
0.709500
20
3.160000
11
2.879500
21
3.160000
0
LINE
8
0
62
7
6
CONTINUOUS
10
0.709500
20
3.439000
11
2.879500
21
3.439000
0
LINE
8
0
62
7
6
CONTINUOUS
10
0.709500
20
4.410000
11
2.879500
21
4.410000
0
LINE
8
0
62
7
6
CONTINUOUS
10
0.709500
20
4.689000
11
2.879500
21
4.689000
0
LINE
8
0
62
7
6
CONTINUOUS
10
0.709500
20
5.660000
11
2.879500
21
5.660000
0
LINE
8
0
62
7
6
CONTINUOUS
10
0.709500
20
3.439000
11
0.709500
21
4.410000
0
LINE
8
0
62
7
6
CONTINUOUS
10
0.709500
20
2.189000
11
0.709500
21
3.160000
0
LINE
8
0
62
7
6
CONTINUOUS
10
0.709500
20
4.689000
11
0.709500
21
5.660000
0
LINE
8
0
62
7
6
CONTINUOUS
10
2.879500
20
3.439000
11
2.879500
21
4.410000
0
LINE
8
0
62
7
6
CONTINUOUS
10
2.879500
20
2.189000
11
2.879500
21
3.160000
0
LINE
8
0
62
7
6
CONTINUOUS
10
2.879500
20
4.689000
11
2.879500
21
5.660000
0
LINE
8
0
62
7
6
CONTINUOUS
10
0.709500
20
9.539000
11
0.709500
21
10.510000
0
LINE
8
0
62
7
6
CONTINUOUS
10
1.789500
20
9.539000
11
1.789500
21
10.510000
0
LINE
8
0
62
7
6
CONTINUOUS
10
2.209500
20
9.539000
11
2.209500
21
10.510000
0
LINE
8
0
62
7
6
CONTINUOUS
10
0.709500
20
5.939000
11
1.789500
21
5.939000
0
LINE
8
0
62
7
6
CONTINUOUS
10
0.709500
20
6.910000
11
1.789500
21
6.910000
0
LINE
8
0
62
7
6
CONTINUOUS
10
0.709500
20
7.139000
11
1.789500
21
7.139000
0
LINE
8
0
62
7
6
CONTINUOUS
10
0.709500
20
8.110000
11
1.789500
21
8.110000
0
LINE
8
0
62
7
6
CONTINUOUS
10
0.709500
20
8.339000
11
1.789500
21
8.339000
0
LINE
8
0
62
7
6
CONTINUOUS
10
0.709500
20
9.310000
11
1.789500
21
9.310000
0
LINE
8
0
62
7
6
CONTINUOUS
10
0.709500
20
9.539000
11
1.789500
21
9.539000
0
LINE
8
0
62
7
6
CONTINUOUS
10
0.709500
20
5.939000
11
0.709500
21
6.910000
0
LINE
8
0
62
7
6
CONTINUOUS
10
0.709500
20
7.139000
11
0.709500
21
8.110000
0
LINE
8
0
62
7
6
CONTINUOUS
10
0.709500
20
8.339000
11
0.709500
21
9.310000
0
LINE
8
0
62
7
6
CONTINUOUS
10
1.789500
20
5.939000
11
1.789500
21
6.910000
0
LINE
8
0
62
7
6
CONTINUOUS
10
1.789500
20
7.139000
11
1.789500
21
8.110000
0
LINE
8
0
62
7
6
CONTINUOUS
10
2.209500
20
5.939000
11
2.209500
21
6.910000
0
LINE
8
0
62
7
6
CONTINUOUS
10
2.209500
20
7.139000
11
2.209500
21
8.110000
0
LINE
8
0
62
7
6
CONTINUOUS
10
1.789500
20
8.339000
11
1.789500
21
9.310000
0
LINE
8
0
62
7
6
CONTINUOUS
10
2.209500
20
8.339000
11
2.209500
21
9.310000
0
LINE
8
0
62
7
6
CONTINUOUS
10
0.709500
20
10.510000
11
1.789500
21
10.510000
0
LINE
8
0
62
7
6
CONTINUOUS
10
8.500000
20
0.000000
11
8.500000
21
11.000000
0
LINE
8
0
62
7
6
CONTINUOUS
10
8.500000
20
0.000000
11
8.500000
21
11.000000
0
LINE
8
0
62
7
6
CONTINUOUS
10
5.619500
20
2.189000
11
7.789500
21
2.189000
0
LINE
8
0
62
7
6
CONTINUOUS
10
5.619500
20
3.160000
11
7.789500
21
3.160000
0
LINE
8
0
62
7
6
CONTINUOUS
10
5.619500
20
3.439000
11
7.789500
21
3.439000
0
LINE
8
0
62
7
6
CONTINUOUS
10
5.619500
20
4.410000
11
7.789500
21
4.410000
0
LINE
8
0
62
7
6
CONTINUOUS
10
5.619500
20
4.689000
11
7.789500
21
4.689000
0
LINE
8
0
62
7
6
CONTINUOUS
10
5.619500
20
5.660000
11
7.789500
21
5.660000
0
LINE
8
0
62
7
6
CONTINUOUS
10
3.164500
20
2.189000
11
5.334500
21
2.189000
0
LINE
8
0
62
7
6
CONTINUOUS
10
3.164500
20
3.160000
11
5.334500
21
3.160000
0
LINE
8
0
62
7
6
CONTINUOUS
10
3.164500
20
3.439000
11
5.334500
21
3.439000
0
LINE
8
0
62
7
6
CONTINUOUS
10
3.164500
20
4.410000
11
5.334500
21
4.410000
0
LINE
8
0
62
7
6
CONTINUOUS
10
3.164500
20
4.689000
11
5.334500
21
4.689000
0
LINE
8
0
62
7
6
CONTINUOUS
10
3.164500
20
5.660000
11
5.334500
21
5.660000
0
LINE
8
0
62
7
6
CONTINUOUS
10
3.164500
20
3.439000
11
3.164500
21
4.410000
0
LINE
8
0
62
7
6
CONTINUOUS
10
3.164500
20
2.189000
11
3.164500
21
3.160000
0
LINE
8
0
62
7
6
CONTINUOUS
10
3.164500
20
4.689000
11
3.164500
21
5.660000
0
LINE
8
0
62
7
6
CONTINUOUS
10
5.334500
20
3.439000
11
5.334500
21
4.410000
0
LINE
8
0
62
7
6
CONTINUOUS
10
5.619500
20
3.439000
11
5.619500
21
4.410000
0
LINE
8
0
62
7
6
CONTINUOUS
10
5.334500
20
2.189000
11
5.334500
21
3.160000
0
LINE
8
0
62
7
6
CONTINUOUS
10
5.619500
20
2.189000
11
5.619500
21
3.160000
0
LINE
8
0
62
7
6
CONTINUOUS
10
5.334500
20
4.689000
11
5.334500
21
5.660000
0
LINE
8
0
62
7
6
CONTINUOUS
10
5.619500
20
4.689000
11
5.619500
21
5.660000
0
LINE
8
0
62
7
6
CONTINUOUS
10
7.789500
20
3.439000
11
7.789500
21
4.410000
0
LINE
8
0
62
7
6
CONTINUOUS
10
7.789500
20
2.189000
11
7.789500
21
3.160000
0
LINE
8
0
62
7
6
CONTINUOUS
10
7.789500
20
4.689000
11
7.789500
21
5.660000
0
LINE
8
0
62
7
6
CONTINUOUS
10
3.289500
20
9.539000
11
3.289500
21
10.510000
0
LINE
8
0
62
7
6
CONTINUOUS
10
3.709500
20
9.539000
11
3.709500
21
10.510000
0
LINE
8
0
62
7
6
CONTINUOUS
10
4.789500
20
9.539000
11
4.789500
21
10.510000
0
LINE
8
0
62
7
6
CONTINUOUS
10
5.209500
20
9.539000
11
5.209500
21
10.510000
0
LINE
8
0
62
7
6
CONTINUOUS
10
6.289500
20
9.539000
11
6.289500
21
10.510000
0
LINE
8
0
62
7
6
CONTINUOUS
10
3.709500
20
5.939000
11
4.789500
21
5.939000
0
LINE
8
0
62
7
6
CONTINUOUS
10
3.709500
20
6.910000
11
4.789500
21
6.910000
0
LINE
8
0
62
7
6
CONTINUOUS
10
3.709500
20
7.139000
11
4.789500
21
7.139000
0
LINE
8
0
62
7
6
CONTINUOUS
10
3.709500
20
8.110000
11
4.789500
21
8.110000
0
LINE
8
0
62
7
6
CONTINUOUS
10
3.709500
20
8.339000
11
4.789500
21
8.339000
0
LINE
8
0
62
7
6
CONTINUOUS
10
3.709500
20
9.310000
11
4.789500
21
9.310000
0
LINE
8
0
62
7
6
CONTINUOUS
10
3.709500
20
9.539000
11
4.789500
21
9.539000
0
LINE
8
0
62
7
6
CONTINUOUS
10
3.289500
20
5.939000
11
3.289500
21
6.910000
0
LINE
8
0
62
7
6
CONTINUOUS
10
3.709500
20
5.939000
11
3.709500
21
6.910000
0
LINE
8
0
62
7
6
CONTINUOUS
10
3.289500
20
7.139000
11
3.289500
21
8.110000
0
LINE
8
0
62
7
6
CONTINUOUS
10
3.709500
20
7.139000
11
3.709500
21
8.110000
0
LINE
8
0
62
7
6
CONTINUOUS
10
3.289500
20
8.339000
11
3.289500
21
9.310000
0
LINE
8
0
62
7
6
CONTINUOUS
10
3.709500
20
8.339000
11
3.709500
21
9.310000
0
LINE
8
0
62
7
6
CONTINUOUS
10
5.209500
20
5.939000
11
6.289500
21
5.939000
0
LINE
8
0
62
7
6
CONTINUOUS
10
5.209500
20
6.910000
11
6.289500
21
6.910000
0
LINE
8
0
62
7
6
CONTINUOUS
10
5.209500
20
7.139000
11
6.289500
21
7.139000
0
LINE
8
0
62
7
6
CONTINUOUS
10
4.789500
20
5.939000
11
4.789500
21
6.910000
0
LINE
8
0
62
7
6
CONTINUOUS
10
5.209500
20
5.939000
11
5.209500
21
6.910000
0
LINE
8
0
62
7
6
CONTINUOUS
10
4.789500
20
7.139000
11
4.789500
21
8.110000
0
LINE
8
0
62
7
6
CONTINUOUS
10
5.209500
20
7.139000
11
5.209500
21
8.110000
0
LINE
8
0
62
7
6
CONTINUOUS
10
6.289500
20
5.939000
11
6.289500
21
6.910000
0
LINE
8
0
62
7
6
CONTINUOUS
10
6.289500
20
7.139000
11
6.289500
21
8.110000
0
LINE
8
0
62
7
6
CONTINUOUS
10
5.209500
20
8.110000
11
6.289500
21
8.110000
0
LINE
8
0
62
7
6
CONTINUOUS
10
5.209500
20
8.339000
11
6.289500
21
8.339000
0
LINE
8
0
62
7
6
CONTINUOUS
10
5.209500
20
9.310000
11
6.289500
21
9.310000
0
LINE
8
0
62
7
6
CONTINUOUS
10
5.209500
20
9.539000
11
6.289500
21
9.539000
0
LINE
8
0
62
7
6
CONTINUOUS
10
4.789500
20
8.339000
11
4.789500
21
9.310000
0
LINE
8
0
62
7
6
CONTINUOUS
10
5.209500
20
8.339000
11
5.209500
21
9.310000
0
LINE
8
0
62
7
6
CONTINUOUS
10
6.289500
20
8.339000
11
6.289500
21
9.310000
0
LINE
8
0
62
7
6
CONTINUOUS
10
3.709500
20
10.510000
11
4.789500
21
10.510000
0
LINE
8
0
62
7
6
CONTINUOUS
10
5.209500
20
10.510000
11
6.289500
21
10.510000
0
LINE
8
0
62
7
6
CONTINUOUS
10
6.709500
20
9.539000
11
6.709500
21
10.510000
0
LINE
8
0
62
7
6
CONTINUOUS
10
7.789500
20
9.539000
11
7.789500
21
10.510000
0
LINE
8
0
62
7
6
CONTINUOUS
10
6.709500
20
5.939000
11
7.789500
21
5.939000
0
LINE
8
0
62
7
6
CONTINUOUS
10
6.709500
20
6.910000
11
7.789500
21
6.910000
0
LINE
8
0
62
7
6
CONTINUOUS
10
6.709500
20
7.139000
11
7.789500
21
7.139000
0
LINE
8
0
62
7
6
CONTINUOUS
10
6.709500
20
5.939000
11
6.709500
21
6.910000
0
LINE
8
0
62
7
6
CONTINUOUS
10
6.709500
20
7.139000
11
6.709500
21
8.110000
0
LINE
8
0
62
7
6
CONTINUOUS
10
7.789500
20
5.939000
11
7.789500
21
6.910000
0
LINE
8
0
62
7
6
CONTINUOUS
10
7.789500
20
7.139000
11
7.789500
21
8.110000
0
LINE
8
0
62
7
6
CONTINUOUS
10
6.709500
20
8.110000
11
7.789500
21
8.110000
0
LINE
8
0
62
7
6
CONTINUOUS
10
6.709500
20
8.339000
11
7.789500
21
8.339000
0
LINE
8
0
62
7
6
CONTINUOUS
10
6.709500
20
9.310000
11
7.789500
21
9.310000
0
LINE
8
0
62
7
6
CONTINUOUS
10
6.709500
20
9.539000
11
7.789500
21
9.539000
0
LINE
8
0
62
7
6
CONTINUOUS
10
6.709500
20
8.339000
11
6.709500
21
9.310000
0
LINE
8
0
62
7
6
CONTINUOUS
10
7.789500
20
8.339000
11
7.789500
21
9.310000
0
LINE
8
0
62
7
6
CONTINUOUS
10
6.709500
20
10.510000
11
7.789500
21
10.510000
0
TEXT
8
0
10
7.001444
20
0.261550
40
0.150000
41
0.800000
50
0.000000
1
VERSION 2.1
0
TEXT
8
FilenameLayer
7
ARIAL
10
0.500000
20
0.400000
40
0.150000
50
0.000000
1
(PwC)-S8-D0-SB0-DB0-CClassic White.DXF
0
TEXT
8
EngravingLayer
7
ARIAL
10
1.249500
20
10.024500
72
1
73
2
11
1.249500
21
10.024500
40
0.150000
50
0.000000
1
\U+0043\U+004F\U+004D\U+0042\U+0049\U+004E\U+0045
0
TEXT
8
EngravingLayer
7
ARIAL
10
2.749500
20
10.024500
72
1
73
2
11
2.749500
21
10.024500
40
0.150000
50
0.000000
1
\U+0044\U+0053\U+0054\U+0056
0
TEXT
8
EngravingLayer
7
ARIAL
10
4.249500
20
10.024500
72
1
73
2
11
4.249500
21
10.024500
40
0.150000
50
0.000000
1
\U+0043\U+0048\U+0041\U+004E\U+0020\U+0055\U+0050
0
TEXT
8
EngravingLayer
7
ARIAL
10
5.749500
20
10.024500
72
1
73
2
11
5.749500
21
10.024500
40
0.150000
50
0.000000
1
\U+0043\U+0048\U+0020\U+0044\U+0057\U+004E
0
TEXT
8
EngravingLayer
7
ARIAL
10
7.249500
20
10.024500
72
1
73
2
11
7.249500
21
10.024500
40
0.150000
50
0.000000
1
\U+0050\U+0043
0
TEXT
8
EngravingLayer
7
ARIAL
10
1.249500
20
8.824500
72
1
73
2
11
1.249500
21
8.824500
40
0.150000
50
0.000000
1
\U+0044\U+0056\U+0044
0
TEXT
8
EngravingLayer
7
ARIAL
10
2.749500
20
8.824500
72
1
73
2
11
2.749500
21
8.824500
40
0.150000
50
0.000000
1
\U+0056\U+004F\U+004C\U+0020\U+0055\U+0050
0
TEXT
8
EngravingLayer
7
ARIAL
10
4.249500
20
8.824500
72
1
73
2
11
4.249500
21
8.824500
40
0.150000
50
0.000000
1
\U+0056\U+004F\U+004C\U+0020\U+0044\U+0057\U+004E
0
ENDSEC
0
EOF
